<?xml version="1.0" encoding="UTF-8" standalone="no"?>
<!DOCTYPE svg PUBLIC "-//W3C//DTD SVG 1.1//EN" "http://www.w3.org/Graphics/SVG/1.1/DTD/svg11.dtd">
<svg width="100%" height="100%" viewBox="0 0 5600 1000" version="1.1" xmlns="http://www.w3.org/2000/svg" xmlns:xlink="http://www.w3.org/1999/xlink" xml:space="preserve" xmlns:serif="http://www.serif.com/" style="fill-rule:evenodd;clip-rule:evenodd;stroke-linecap:round;stroke-linejoin:round;stroke-miterlimit:1.5;">
    <g>
        <g id="the-lift" serif:id="the lift" transform="matrix(1.41591,0,0,1.41591,-436.005,-16.5835)">
            <g id="bottom---original" serif:id="bottom - original" transform="matrix(-1,0,0,-1,931.296,729.686)">
                <path d="M527.562,359.145C527.562,359.145 551.272,350.428 584.193,491.668C590.099,517.003 543.234,545.541 543.138,544.784C529.147,433.732 357.716,684.195 357.716,684.195C357.716,684.195 344.546,673.888 346.862,661.17C356.862,606.242 407.361,548.009 407.361,548.009C407.361,548.009 373.741,575.534 372.482,586.807C372.45,587.092 357.028,588.134 355.06,583.301C346.447,562.157 374.734,526.396 374.732,526.48C374.722,526.966 360.229,530.069 357.072,522.59C353.915,515.112 359.212,492.337 359.212,492.337C359.212,492.337 355.209,477.648 354.667,469.739C354.126,461.83 398.5,376.046 398.5,376.046L378.269,36.257L575.068,29.247L527.562,359.145Z" style="fill:rgb(249,174,8);stroke:black;stroke-opacity:0;stroke-width:0.71px;"/>
            </g>
            <g id="top" transform="matrix(1,0,0,1,0.895196,-0.259306)">
                <path d="M527.562,359.145C527.562,359.145 551.272,350.428 584.193,491.668C590.099,517.003 543.234,545.541 543.138,544.784C529.147,433.732 357.716,684.195 357.716,684.195C357.716,684.195 344.546,673.888 346.862,661.17C356.862,606.242 407.361,548.009 407.361,548.009C407.361,548.009 373.741,575.534 372.482,586.807C372.45,587.092 357.028,588.134 355.06,583.301C346.447,562.157 374.734,526.396 374.732,526.48C374.722,526.966 360.229,530.069 357.072,522.59C353.915,515.112 359.212,492.337 359.212,492.337C359.212,492.337 355.209,477.648 354.667,469.739C354.126,461.83 398.5,376.046 398.5,376.046L378.269,36.257L575.068,29.247L527.562,359.145Z" style="fill:rgb(235,17,8);stroke:black;stroke-opacity:0;stroke-width:0.71px;"/>
            </g>
            <g id="finger-tips" serif:id="finger tips">
                <path d="M387.034,184.703C387.034,184.703 438.194,153.994 447.518,173.469C452.607,184.098 385.212,243.975 385.212,243.975L387.034,184.703Z" style="fill:rgb(249,174,8);stroke:black;stroke-opacity:0;stroke-width:0.71px;"/>
                <path d="M556.066,203.742C556.066,203.742 487.094,246.124 494,257.662C501.317,269.887 553.959,241.928 553.959,241.928L556.066,203.742Z" style="fill:rgb(249,174,8);stroke:black;stroke-opacity:0;stroke-width:0.71px;"/>
                <path d="M562.159,243.975C562.159,243.975 510.59,289.755 516.504,299.652C524.72,313.4 552.24,288.563 552.24,288.563L562.159,243.975Z" style="fill:rgb(249,174,8);stroke:black;stroke-opacity:0;stroke-width:0.71px;"/>
                <g id="bottom" transform="matrix(0.706261,0,0,0.706261,332.724,11.5903)">
                    <path d="M251.15,251.514C239.222,237.817 289.981,204.552 309.703,190.191C322.607,180.794 339.639,183.665 343.375,190.51C350.572,203.695 343.428,222.801 335.793,238.48C335.793,238.48 260.997,262.821 251.15,251.514Z" style="fill:rgb(249,174,8);stroke:black;stroke-opacity:0;stroke-width:1px;"/>
                </g>
                <g id="bottom---original-x" serif:id="bottom - original x" transform="matrix(0.706261,0,0,0.706261,332.834,11.7123)">
                    <path d="M331.791,52.06C336.943,47.704 340.875,47.827 340.875,47.827C340.875,47.827 359.523,62.421 356.244,80.429C350.908,109.74 337.426,139.716 322.697,165.692L333.599,89.986C334.083,90.798 326.665,82.199 324.48,76.301C321.723,68.857 323.785,58.828 331.791,52.06Z" style="fill:rgb(249,174,8);stroke:black;stroke-opacity:0;stroke-width:1px;"/>
                </g>
            </g>
        </g>
        <g id="words" transform="matrix(2.80027,-2.03337e-33,0,2.80027,-1439.9,-785.893)">
            <g id="global" transform="matrix(1,0,0,1,834.094,0)">
                <g transform="matrix(288,0,0,288,712.695,544.211)">
                    <path d="M0.667,-0.017C0.577,0.006 0.499,0.018 0.433,0.018C0.308,0.018 0.213,-0.015 0.146,-0.08C0.079,-0.146 0.045,-0.24 0.045,-0.362C0.045,-0.484 0.079,-0.577 0.146,-0.643C0.213,-0.708 0.308,-0.741 0.432,-0.741C0.511,-0.741 0.589,-0.731 0.667,-0.713L0.667,-0.595C0.577,-0.626 0.503,-0.642 0.445,-0.642C0.368,-0.642 0.309,-0.617 0.268,-0.568C0.226,-0.52 0.205,-0.45 0.205,-0.361C0.205,-0.274 0.227,-0.206 0.272,-0.157C0.317,-0.108 0.378,-0.083 0.457,-0.083C0.474,-0.083 0.494,-0.085 0.517,-0.09L0.517,-0.328L0.667,-0.328L0.667,-0.017Z" style="fill:rgb(235,17,8);fill-rule:nonzero;"/>
                </g>
                <g transform="matrix(288,0,0,288,927.43,544.211)">
                    <rect x="0.09" y="-0.771" width="0.145" height="0.771" style="fill:rgb(235,17,8);fill-rule:nonzero;"/>
                </g>
                <g transform="matrix(288,0,0,288,1021.09,544.211)">
                    <path d="M0.315,0.012C0.232,0.012 0.165,-0.013 0.116,-0.064C0.067,-0.114 0.042,-0.182 0.042,-0.268C0.042,-0.355 0.067,-0.423 0.116,-0.473C0.166,-0.523 0.234,-0.548 0.319,-0.548C0.404,-0.548 0.472,-0.523 0.522,-0.473C0.571,-0.423 0.596,-0.355 0.596,-0.269C0.596,-0.181 0.571,-0.112 0.521,-0.063C0.472,-0.013 0.403,0.012 0.315,0.012ZM0.318,-0.078C0.401,-0.078 0.442,-0.142 0.442,-0.269C0.442,-0.327 0.431,-0.373 0.409,-0.407C0.387,-0.441 0.357,-0.458 0.319,-0.458C0.281,-0.458 0.251,-0.441 0.229,-0.407C0.207,-0.373 0.196,-0.327 0.196,-0.268C0.196,-0.21 0.207,-0.164 0.229,-0.129C0.25,-0.095 0.28,-0.078 0.318,-0.078Z" style="fill:rgb(235,17,8);fill-rule:nonzero;"/>
                </g>
                <g transform="matrix(288,0,0,288,1205.02,544.211)">
                    <path d="M0.09,-0L0.09,-0.771L0.235,-0.771L0.235,-0.435C0.272,-0.511 0.33,-0.548 0.41,-0.548C0.475,-0.548 0.525,-0.525 0.562,-0.478C0.599,-0.43 0.618,-0.365 0.618,-0.283C0.618,-0.193 0.597,-0.122 0.555,-0.068C0.514,-0.015 0.458,0.012 0.388,0.012C0.328,0.012 0.277,-0.01 0.235,-0.054L0.208,-0L0.09,-0ZM0.235,-0.14C0.27,-0.101 0.307,-0.082 0.347,-0.082C0.383,-0.082 0.411,-0.099 0.432,-0.133C0.453,-0.167 0.464,-0.213 0.464,-0.271C0.464,-0.38 0.429,-0.435 0.358,-0.435C0.315,-0.435 0.274,-0.408 0.235,-0.353L0.235,-0.14Z" style="fill:rgb(235,17,8);fill-rule:nonzero;"/>
                </g>
                <g transform="matrix(288,0,0,288,1395.85,544.211)">
                    <path d="M0.353,-0.058C0.305,-0.011 0.253,0.012 0.198,0.012C0.151,0.012 0.113,-0.002 0.084,-0.031C0.055,-0.059 0.04,-0.097 0.04,-0.142C0.04,-0.201 0.064,-0.247 0.111,-0.279C0.158,-0.311 0.226,-0.327 0.314,-0.327L0.353,-0.327L0.353,-0.376C0.353,-0.432 0.321,-0.459 0.258,-0.459C0.201,-0.459 0.145,-0.444 0.087,-0.412L0.087,-0.511C0.152,-0.536 0.217,-0.548 0.281,-0.548C0.422,-0.548 0.492,-0.493 0.492,-0.381L0.492,-0.144C0.492,-0.102 0.505,-0.081 0.532,-0.081C0.537,-0.081 0.543,-0.081 0.551,-0.083L0.555,-0.001C0.524,0.008 0.497,0.012 0.474,0.012C0.414,0.012 0.376,-0.011 0.359,-0.058L0.353,-0.058ZM0.353,-0.135L0.353,-0.244L0.319,-0.244C0.225,-0.244 0.179,-0.215 0.179,-0.156C0.179,-0.136 0.185,-0.12 0.199,-0.106C0.212,-0.093 0.229,-0.086 0.249,-0.086C0.283,-0.086 0.318,-0.102 0.353,-0.135Z" style="fill:rgb(235,17,8);fill-rule:nonzero;"/>
                </g>
                <g transform="matrix(288,0,0,288,1565.16,544.211)">
                    <rect x="0.09" y="-0.771" width="0.145" height="0.771" style="fill:rgb(235,17,8);fill-rule:nonzero;"/>
                </g>
            </g>
            <g id="uplift" transform="matrix(1,0,0,1,-1078.34,0)">
                <g transform="matrix(288,0,0,288,1779.78,544.211)">
                    <path d="M0.084,-0.723L0.235,-0.723L0.235,-0.28C0.235,-0.21 0.246,-0.159 0.27,-0.128C0.293,-0.097 0.33,-0.082 0.381,-0.082C0.431,-0.082 0.466,-0.096 0.488,-0.126C0.51,-0.156 0.521,-0.203 0.521,-0.269L0.521,-0.723L0.652,-0.723L0.652,-0.279C0.652,-0.212 0.646,-0.161 0.633,-0.126C0.62,-0.091 0.597,-0.061 0.563,-0.035C0.518,0 0.456,0.018 0.378,0.018C0.295,0.018 0.229,-0.001 0.178,-0.039C0.143,-0.065 0.119,-0.095 0.105,-0.131C0.091,-0.167 0.084,-0.216 0.084,-0.28L0.084,-0.723Z" style="fill:rgb(249,174,8);fill-rule:nonzero;"/>
                </g>
                <g transform="matrix(288,0,0,288,1991.84,544.211)">
                    <path d="M0.09,0.193L0.09,-0.536L0.235,-0.536L0.235,-0.435C0.272,-0.511 0.33,-0.548 0.41,-0.548C0.475,-0.548 0.525,-0.525 0.562,-0.478C0.599,-0.43 0.618,-0.365 0.618,-0.283C0.618,-0.193 0.597,-0.121 0.555,-0.068C0.514,-0.014 0.458,0.012 0.388,0.012C0.331,0.012 0.28,-0.01 0.235,-0.054L0.235,0.193L0.09,0.193ZM0.235,-0.14C0.27,-0.101 0.307,-0.082 0.347,-0.082C0.383,-0.082 0.411,-0.099 0.432,-0.133C0.453,-0.167 0.464,-0.213 0.464,-0.271C0.464,-0.38 0.429,-0.435 0.358,-0.435C0.315,-0.435 0.274,-0.408 0.235,-0.353L0.235,-0.14Z" style="fill:rgb(249,174,8);fill-rule:nonzero;"/>
                </g>
                <g transform="matrix(288,0,0,288,2182.67,544.211)">
                    <rect x="0.09" y="-0.771" width="0.145" height="0.771" style="fill:rgb(249,174,8);fill-rule:nonzero;"/>
                </g>
                <g transform="matrix(288,0,0,288,2276.33,544.211)">
                    <path d="M0.09,-0L0.09,-0.536L0.235,-0.536L0.235,-0L0.09,-0ZM0.09,-0.626L0.09,-0.747L0.235,-0.747L0.235,-0.626L0.09,-0.626Z" style="fill:rgb(249,174,8);fill-rule:nonzero;"/>
                </g>
                <g transform="matrix(288,0,0,288,2369.98,544.211)">
                    <path d="M0.105,-0L0.105,-0.446L0.032,-0.446L0.032,-0.536L0.105,-0.536L0.105,-0.575C0.105,-0.714 0.171,-0.783 0.303,-0.783C0.346,-0.783 0.39,-0.777 0.435,-0.765L0.435,-0.667C0.394,-0.684 0.357,-0.693 0.325,-0.693C0.275,-0.693 0.25,-0.655 0.25,-0.58L0.25,-0.536L0.386,-0.536L0.386,-0.446L0.25,-0.446L0.25,-0L0.105,-0Z" style="fill:rgb(249,174,8);fill-rule:nonzero;"/>
                </g>
                <g transform="matrix(288,0,0,288,2489.37,544.211)">
                    <path d="M0.367,-0.003C0.332,0.007 0.305,0.012 0.285,0.012C0.16,0.012 0.097,-0.046 0.097,-0.164L0.097,-0.446L0.037,-0.446L0.037,-0.536L0.097,-0.536L0.097,-0.626L0.242,-0.643L0.242,-0.536L0.356,-0.536L0.356,-0.446L0.242,-0.446L0.242,-0.183C0.242,-0.117 0.269,-0.084 0.322,-0.084C0.335,-0.084 0.349,-0.086 0.367,-0.091L0.367,-0.003Z" style="fill:rgb(249,174,8);fill-rule:nonzero;"/>
                </g>
            </g>
        </g>
    </g>
</svg>
